PathFileType	4	(X/Y/Z)	 s07c0203.trc
DataRate	CameraRate	NumFrames	NumMarkers	Units	OrigDataRate	OrigDataStartFrame	OrigNumFrames
200	200	7	48	mm	200	501	2000
Frame#	Time	racr			lacr			c7			jug			rlel			rdr			llel			ldr			s2			lic			ric			lasi			rasi			rpsi			lpsi			rgt			lgt			rth1			rth2			rth3			rth4			rlfc			rmfc			rsh1			rsh2			rsh3			rsh4			rlmal			rcal			rtoe			rmt5			lth1			lth2			lth4			lth3			llfc			lmfc			lsh1			lsh2			lsh3			lsh4			llmal			lcal			ltoe			lmt5			SBIKE			LBIKE			RBIKE			
		X1	Y1	Z1	X2	Y2	Z2	X3	Y3	Z3	X4	Y4	Z4	X5	Y5	Z5	X6	Y6	Z6	X7	Y7	Z7	X8	Y8	Z8	X9	Y9	Z9	X10	Y10	Z10	X11	Y11	Z11	X12	Y12	Z12	X13	Y13	Z13	X14	Y14	Z14	X15	Y15	Z15	X16	Y16	Z16	X17	Y17	Z17	X18	Y18	Z18	X19	Y19	Z19	X20	Y20	Z20	X21	Y21	Z21	X22	Y22	Z22	X23	Y23	Z23	X24	Y24	Z24	X25	Y25	Z25	X26	Y26	Z26	X27	Y27	Z27	X28	Y28	Z28	X29	Y29	Z29	X30	Y30	Z30	X31	Y31	Z31	X32	Y32	Z32	X33	Y33	Z33	X34	Y34	Z34	X35	Y35	Z35	X36	Y36	Z36	X37	Y37	Z37	X38	Y38	Z38	X39	Y39	Z39	X40	Y40	Z40	X41	Y41	Z41	X42	Y42	Z42	X43	Y43	Z43	X44	Y44	Z44	X45	Y45	Z45	X46	Y46	Z46	X47	Y47	Z47	X48	Y48	Z48	
501	2.5050	440.344364	1457.845332	-56.529222	442.823442	1453.892480	-337.518844	401.686821	1519.163822	-205.914090	380.901145	1370.715942	-205.050986	466.488495	1117.674204	67.469254	690.495834	944.262102	-49.294007	479.077788	1148.108815	-516.659665	688.804450	943.835061	-433.916773	-127.335567	1199.284804	-246.805826	29.851987	1267.904282	-375.643177	23.727870	1250.215229	-85.394051	64.749137	1196.258335	-348.715695	51.435070	1196.596337	-100.441800	-105.541093	1240.434790	-194.738122	-94.947280	1253.404530	-300.432642	-22.884510	1110.190429	-51.736847	-1.228075	1121.521181	-421.079321	80.772474	973.795795	-41.714822	139.583969	908.563718	-50.307529	160.597229	825.354412	-51.197424	169.377637	925.652772	-65.422269	220.966629	704.872483	-80.237248	208.550297	686.931473	-180.698940	194.483456	563.788102	-52.056090	204.255597	476.880911	-72.079225	173.891511	395.652849	-67.881023	219.004845	479.456170	-109.455127	153.178246	255.764241	-71.413959	92.173772	206.103680	-100.623768	381.655203	229.022293	-119.607978	311.626894	181.948065	-48.248331	98.590932	1060.866163	-423.721085	186.688426	1053.393620	-425.462903	199.163375	1085.932496	-415.437949	259.752523	1002.166157	-424.877591	409.842384	903.148588	-395.318079	403.306972	885.614257	-292.925800	304.630577	797.603776	-406.922631	257.703718	727.586399	-389.108035	177.893350	686.294526	-392.357939	266.107085	725.314207	-347.809120	76.026749	602.472599	-391.766668	-1.372860	621.708717	-352.601089	185.405655	399.290370	-353.817358	113.495267	442.736394	-415.195457	-256.909412	965.482663	-232.020526	-75.432191	83.710017	-437.156639	-82.069854	79.581694	-39.693125	
502	2.5100	442.653107	1459.087777	-58.838306	439.169293	1457.725073	-340.733902	401.859748	1521.545993	-206.803112	379.256209	1372.924715	-206.693381	467.991029	1119.011861	67.771652	691.123856	944.693588	-49.234363	478.866010	1149.836009	-513.645965	688.589555	943.937333	-431.991486	-125.496357	1199.090583	-243.605243	29.933008	1270.183970	-372.810914	26.910874	1248.384932	-82.203183	66.411336	1198.564399	-346.546037	53.939706	1194.285321	-98.337145	-104.566004	1239.925229	-190.279654	-93.765124	1253.629455	-296.877174	-20.977186	1107.598086	-50.246571	0.720525	1125.081246	-419.993440	79.358256	969.293151	-39.576185	136.734728	902.775864	-48.086203	155.757839	819.175737	-49.165506	166.996826	919.167597	-63.072293	214.844287	698.528784	-78.695757	202.204833	681.469104	-178.920405	187.712620	557.445524	-51.208854	197.071862	470.760311	-71.281057	166.368768	389.690779	-67.602525	212.238202	473.382905	-108.530896	145.266050	250.006382	-71.646602	84.158851	200.670154	-101.017451	373.819581	221.719975	-119.520937	303.228742	175.014780	-48.273296	101.119142	1067.113730	-423.455696	189.348954	1061.622449	-426.067271	201.238210	1094.240958	-415.645322	263.443970	1011.826844	-426.453606	416.246337	914.964061	-398.452521	411.253589	896.740719	-295.464354	313.198028	807.685465	-409.308014	266.837274	737.340727	-391.285429	187.422138	695.280307	-394.230982	275.270365	734.968651	-349.945722	85.681426	609.465072	-393.086672	8.375706	629.041764	-353.227668	193.979604	405.561928	-354.366908	121.825787	448.918236	-415.842446	-256.726091	965.629666	-231.903574	-75.396629	83.861772	-437.196297	-82.077944	79.567608	-39.684121	
503	2.5150	444.789525	1460.197969	-61.213481	435.410115	1461.445043	-344.097422	401.772457	1523.823161	-207.849967	377.871203	1374.863530	-208.713284	469.524797	1120.222541	68.009576	692.001200	945.199201	-49.065915	478.625056	1151.426361	-510.572905	688.288512	943.922658	-429.858852	-123.771395	1198.754061	-240.544998	29.925606	1272.410124	-370.079655	30.518617	1246.016931	-79.707010	67.479945	1200.596998	-343.692220	56.461982	1192.160898	-96.204692	-102.174450	1238.618570	-186.114153	-92.709555	1253.932371	-293.096549	-18.985710	1105.155573	-48.733768	2.556646	1128.724385	-418.852674	77.825461	965.163910	-37.862272	134.097341	897.587482	-45.876619	151.290923	813.624718	-47.055400	164.623606	913.475140	-60.829895	209.215347	692.759806	-77.496897	197.204118	675.920033	-177.582845	181.465753	551.746818	-50.611821	191.266408	465.493936	-70.266745	158.953245	384.361071	-67.440133	205.685163	467.894157	-107.751123	137.182186	244.838051	-71.931074	75.457845	196.503532	-101.286846	365.748829	214.548933	-119.698307	294.611533	168.643763	-48.376107	103.350133	1073.191729	-423.281537	191.726447	1069.505120	-426.547084	202.926054	1102.126188	-415.565268	266.824182	1021.194330	-427.738968	421.956510	926.131992	-400.702586	418.416060	908.188701	-297.479945	321.101374	817.382120	-411.449547	275.418317	746.665497	-393.187594	196.394917	703.895247	-396.049049	283.953304	744.320879	-352.045681	95.570074	615.525068	-393.045565	17.390205	635.540784	-353.880477	202.674285	411.453562	-353.603849	130.693551	455.011784	-416.924725	-256.571289	965.780237	-231.812488	-75.373554	83.922691	-437.177554	-82.062450	79.590891	-39.702786	
504	2.5200	446.756018	1461.209168	-63.436631	431.527283	1464.883537	-347.467543	401.351840	1525.950833	-209.175293	377.687926	1376.943828	-212.317746	470.953278	1121.380041	68.155641	693.039102	945.759737	-48.663645	478.350127	1152.897809	-507.475144	687.939214	943.875411	-427.784495	-122.177636	1198.493101	-237.379264	29.813164	1274.423757	-366.930043	34.090836	1243.611789	-77.266648	68.641285	1202.468756	-341.348991	58.841500	1190.063654	-94.242651	-99.444627	1236.777830	-182.848301	-91.718646	1254.298719	-289.347034	-17.070656	1102.885928	-47.313299	4.130624	1132.279444	-417.602262	76.493838	961.592263	-36.026710	131.572909	892.945604	-43.795190	147.334688	808.737286	-44.998751	162.432238	908.263784	-58.718797	204.227360	687.680733	-76.597155	192.982546	670.722902	-177.788308	175.367275	547.584815	-49.720657	184.626055	460.430540	-70.196576	151.764830	379.873674	-67.437972	199.423524	462.970082	-107.412376	129.135378	240.359470	-72.324913	66.669003	192.614012	-101.633646	357.414944	208.527580	-119.658800	285.844631	162.833289	-48.531041	105.354001	1078.948290	-423.074326	193.751125	1077.054447	-426.731366	204.424832	1109.616878	-414.932346	269.704497	1030.153177	-428.899701	427.046400	936.590243	-402.596760	424.462833	917.217067	-299.178349	328.511185	826.485485	-413.694303	283.173666	755.346069	-394.998949	204.430870	711.736889	-397.854403	291.929617	753.005043	-353.804438	103.101503	621.401181	-395.618975	25.788001	641.073154	-354.838130	211.954197	417.587385	-353.339409	139.827337	460.623666	-416.921640	-256.449587	965.892064	-231.632165	-75.358168	83.994154	-437.183728	-82.020504	79.677840	-39.670993	
505	2.5250	448.991113	1462.516567	-65.253221	427.560333	1467.977228	-350.843844	400.778982	1527.997825	-210.702971	377.651340	1378.856425	-215.914432	472.334916	1122.405595	68.191095	694.159114	946.412634	-48.217249	478.008224	1154.133075	-504.473703	687.686534	943.710419	-425.909946	-120.844808	1198.191163	-234.319425	29.609854	1276.400952	-364.222317	37.715297	1241.212428	-75.370368	69.734377	1204.254581	-339.222507	61.254045	1187.986938	-92.367548	-98.301696	1235.653494	-178.046420	-90.798324	1254.565818	-284.876400	-15.334829	1100.750943	-45.784192	5.413598	1135.737031	-416.269539	75.322120	958.442144	-34.310040	129.431945	888.955344	-41.790375	143.853956	804.391494	-43.095095	160.540857	903.850779	-56.694388	200.022129	683.234315	-75.940229	189.957028	666.315184	-176.222298	170.043630	543.562640	-49.590529	177.651561	456.422554	-70.382194	144.900893	376.104892	-67.608135	193.256912	458.752585	-107.433209	120.705258	237.231382	-72.444389	57.991033	189.876270	-101.984960	349.032676	202.561140	-119.455783	276.800041	157.765424	-48.628078	107.059147	1084.347813	-422.748782	195.445997	1083.878675	-426.522166	205.612565	1116.376639	-413.953057	272.086284	1038.420555	-430.047896	431.304073	946.151816	-404.141724	429.821528	926.182349	-300.681120	334.915713	834.502698	-415.099407	290.036664	763.164217	-396.240737	211.757451	718.856052	-399.101283	298.940283	760.789188	-355.149154	110.975749	626.293855	-396.211839	33.077531	645.446504	-355.387939	221.445659	423.691144	-353.288176	149.312473	465.822655	-416.726938	-256.352384	965.970693	-231.519816	-75.340338	84.026510	-437.193217	-81.991164	79.702965	-39.676759	
506	2.5300	450.919226	1463.579404	-67.048540	425.604080	1472.251939	-359.769485	400.097471	1529.783077	-212.379950	377.708718	1380.641818	-219.868379	473.585399	1123.319692	68.215377	695.357569	947.062956	-47.523639	477.620263	1155.613688	-502.601873	687.519670	943.548319	-424.172685	-119.578758	1197.832012	-231.400382	24.254330	1273.947126	-348.210618	41.208043	1238.775312	-73.415711	70.611682	1206.002823	-337.107924	63.616016	1186.201551	-90.564571	-97.038665	1235.102395	-173.733368	-90.121595	1254.910693	-281.047035	-13.993154	1098.506359	-44.234721	6.487827	1138.987455	-414.910900	74.503444	955.649943	-32.539558	127.573391	885.261350	-40.219312	140.869741	800.828822	-41.285630	159.013700	899.803856	-54.995899	196.600865	679.394057	-75.614855	186.673082	663.208324	-176.454402	165.464145	540.259261	-49.784474	171.933177	453.110036	-70.555581	138.301817	373.214256	-67.903291	187.592305	455.307075	-107.747496	112.404433	234.628693	-72.888986	48.999624	188.258784	-102.327618	340.419141	196.849511	-119.522246	267.443806	153.258707	-48.739541	108.396593	1089.346763	-422.264039	196.794868	1090.194741	-426.093132	206.568615	1122.493744	-412.582920	274.088570	1045.885284	-430.848058	434.854873	954.650000	-405.145960	434.274008	934.183803	-301.897533	340.347737	841.392282	-416.220978	296.952569	770.273548	-397.703076	218.348383	724.505585	-399.578749	304.879941	767.794336	-355.864083	118.101506	630.756430	-396.306509	39.825495	648.810890	-355.353937	231.361704	429.382252	-353.147684	158.664786	470.875090	-416.717454	-256.269406	966.014706	-231.402120	-75.329690	84.027898	-437.173430	-82.007090	79.931153	-39.453413	
507	2.5350	452.539934	1464.006830	-69.156091	421.732708	1474.601577	-362.998629	399.714380	1531.057565	-214.135697	375.792007	1382.053085	-221.552031	474.732123	1124.074424	68.108414	696.547494	947.769307	-46.705307	477.124494	1156.551232	-499.938615	687.484534	943.516016	-422.662722	-118.457527	1197.569710	-228.562179	23.626624	1275.956084	-345.536621	44.595104	1236.629211	-71.549654	71.100315	1207.602884	-335.167470	65.774802	1184.760335	-88.881159	-96.399447	1235.472122	-171.264018	-89.920104	1255.382008	-277.296609	-12.419453	1096.823599	-42.857640	7.311522	1141.988722	-413.459346	73.915630	953.292515	-31.093263	126.199571	882.335461	-38.619597	138.481659	797.712685	-39.774963	157.842993	896.509426	-53.478707	194.054224	676.312138	-75.578907	184.471176	660.167856	-175.911911	161.451799	537.831286	-50.141848	166.727804	450.682142	-71.075176	132.026530	371.205305	-68.365228	182.352615	452.716257	-108.138450	104.216578	233.138547	-73.291324	40.391162	187.336981	-102.717532	331.766558	191.730358	-119.539133	257.935080	149.058176	-49.162985	109.378223	1093.816197	-421.597360	197.551398	1095.437657	-425.283023	207.266015	1127.779518	-410.943929	275.615376	1052.559416	-431.265460	437.593658	962.148693	-405.900038	437.575604	941.324742	-302.601068	344.810047	847.152623	-416.630341	301.788849	775.521175	-397.309100	223.843586	729.254931	-399.972127	309.777095	773.833485	-355.778814	124.356897	634.555880	-396.117425	45.880254	651.212401	-355.104704	241.270224	435.394394	-353.186167	167.701264	475.186317	-416.468291	-256.231032	966.066514	-231.275584	-75.330654	84.013194	-437.191377	-82.012335	79.915027	-39.440040	
